<svg xmlns="http://www.w3.org/2000/svg" viewBox="0 0 24 24">
  <path fill="currentColor" d="M18.52 19h-12a2 2 0 0 1-2-2V9.66a2 2 0 0 1 2-2h2.3L10 6a.65.65 0 0 1 .54-.29h4a.65.65 0 0 1 .54.29l1.14 1.71h2.33a2 2 0 0 1 2 2V17a2 2 0 0 1-2.03 2zM6.49 9a.69.69 0 0 0-.69.69V17a.69.69 0 0 0 .69.69h12a.69.69 0 0 0 .69-.69V9.66a.69.69 0 0 0-.66-.66h-2.67a.65.65 0 0 1-.54-.29L14.17 7h-3.32L9.7 8.68a.65.65 0 0 1-.54.32zm6 7.35A3.32 3.32 0 1 1 15.83 13a3.33 3.33 0 0 1-3.32 3.32zm0-5.35a2 2 0 1 0 2 2 2 2 0 0 0-1.98-2z"/>
</svg>