<svg xmlns="http://www.w3.org/2000/svg" viewBox="0 0 369.91 94.39"><path d="M11.57,38.51l-1.22-1.74a3.23,3.23,0,0,0-4.18-1.08A3.07,3.07,0,0,0,5,39.89a1.76,1.76,0,0,0,.14.23l1.26,1.8a3.17,3.17,0,0,0,3.69,1.24,3.08,3.08,0,0,0,1.81-4A2.83,2.83,0,0,0,11.57,38.51Z" style="fill:#fff"/><path d="M35.49,13a3.07,3.07,0,0,0,4.86.24,3.17,3.17,0,0,0,.1-3.89L39.3,7.6a3.21,3.21,0,0,0-4.17-1.08A3.07,3.07,0,0,0,34,10.71a1.58,1.58,0,0,0,.15.24Z" style="fill:#fff"/><path d="M66.78,71.22a19.89,19.89,0,1,1,1.79-28.07c.31.35.6.7.88,1.07A5,5,0,0,0,77.87,39,32.26,32.26,0,0,0,76,36c-6.83-9.66-14.8-21-21.55-30.7a3,3,0,0,0-4.17-.8l-.09.07a3.08,3.08,0,0,0-.73,4.27l6.21,9a3.7,3.7,0,0,1-3.16,5.8h-.1a4.67,4.67,0,0,1-3-2l-3.53-4.87A3.07,3.07,0,0,0,41.57,16l-.25.2a3.18,3.18,0,0,0-.4,4.23l.19.32c1.3,1.86,0,4.38-2.32,5.1a3.76,3.76,0,0,1-4.12-1.47L24.25,9.69A3.08,3.08,0,0,0,20,9l-.19.15a3.22,3.22,0,0,0-.41,4.3L29.63,28.06a3.64,3.64,0,0,1-.32,4.58l-.08.09a3.61,3.61,0,0,1-5.09.18,3.78,3.78,0,0,1-.49-.57l-6.57-9.27a3.08,3.08,0,0,0-5,3.54l9.39,13.28a5.84,5.84,0,0,1,.8,5V45c-.72,2.48-4.18,2.74-5.65.62a3.08,3.08,0,0,0-5.05,3.52L22.65,64.8c.64.91,1.31,1.93,2.17,3.29.37.58,1.44,2.17,1.85,2.74a30.12,30.12,0,0,0,51.57-3.48,3.57,3.57,0,0,0-1.5-4.81,3.64,3.64,0,0,0-1.74-.4,3.54,3.54,0,0,0-3.2,2.14A19.43,19.43,0,0,1,66.78,71.22Z" style="fill:#fff"/><path d="M57.9,65.49a3.66,3.66,0,0,1-1.32,0l-8.74-1.36a3.86,3.86,0,0,1-3.22-4.41h0L46,51a3.87,3.87,0,0,1,4.42-3.22l8.73,1.36a3.87,3.87,0,0,1,3.22,4.42L61,62.29a3.86,3.86,0,0,1-3.09,3.2Zm-8.11-14a.08.08,0,0,0-.08.07L48.34,60.3a.11.11,0,0,0,.08.11l8.74,1.36s.1,0,.1-.08L58.63,53a.1.1,0,0,0-.08-.11l-8.74-1.36Z" style="fill:#fff"/><path d="M126.48,68.4q-3.66,3.67-11.49,3.67a17.16,17.16,0,0,1-12.41-4.62Q97.71,62.77,97.7,55a18.1,18.1,0,0,1,4.82-13q5.1-5.32,13.65-5.34a18.31,18.31,0,0,1,10.15,2.66L125,47.74h-.23a7.6,7.6,0,0,0-3.3-2.49,17,17,0,0,0-5.64-1,11.1,11.1,0,0,0-4.42.72,8,8,0,0,0-2.75,2,10.12,10.12,0,0,0-2.29,6.94q0,7.65,5.31,10a9.7,9.7,0,0,0,3.87.78,15.29,15.29,0,0,0,3.57-.36,12.91,12.91,0,0,0,2.77-1,7.87,7.87,0,0,0,3.6-3l.23.1Zm4.36-13.75a19.52,19.52,0,0,1,1.23-6.89A16.8,16.8,0,0,1,148.59,36.7q7.95,0,12.64,5,4.49,4.77,4.48,12.4a17.94,17.94,0,0,1-4.62,12.64q-4.87,5.31-12.93,5.31-8.31,0-13-5.21Q130.84,62.11,130.84,54.65Zm8-.2a12.14,12.14,0,0,0,.68,4,9.32,9.32,0,0,0,2,3.3,9.19,9.19,0,0,0,7.14,3A7.86,7.86,0,0,0,155,61.82a11.24,11.24,0,0,0,2.29-7.33A11.18,11.18,0,0,0,155,47.08a8.54,8.54,0,0,0-6.91-3,8.37,8.37,0,0,0-7,3.21,11.33,11.33,0,0,0-2.29,7.16Zm41.25,13.46a30,30,0,0,0,.13,3.67H171.9V37.36h8.19Zm17.84-.52a24.51,24.51,0,0,0,.26,4.19H190V37.36h8v2.91a14.28,14.28,0,0,1,9.23-3.57,10.82,10.82,0,0,1,8.58,3.66A14,14,0,0,1,219,50V63c0,3.69.06,5.9.17,6.65a3.07,3.07,0,0,0,.44,1.44c.18.22.34.41.47.59l-.06.13c-1.77-.16-3.06-.23-3.87-.23h-2.29c-.7,0-1.64,0-2.81.1V53.83q0-9.6-5.83-9.59c-2.88,0-5.3,1.48-7.24,4.45ZM252,69.74a16.86,16.86,0,0,1-8.31,2.33,18.62,18.62,0,0,1-7.27-1.31,15.53,15.53,0,0,1-5.31-3.6q-4.52-4.72-4.52-12.25a17.51,17.51,0,0,1,5.24-13,18.34,18.34,0,0,1,13.49-5.24,18.8,18.8,0,0,1,5,.66V22.79h8v35a24.77,24.77,0,0,0,.41,5.7,6.05,6.05,0,0,0,.91,2,6.34,6.34,0,0,0,1.3,1.18l-6.16,5.44A8.3,8.3,0,0,1,252,69.74Zm-6.78-5.2a12.13,12.13,0,0,0,5-1.05V45.35a13,13,0,0,0-5-1,13.11,13.11,0,0,0-4.6.72,9.93,9.93,0,0,0-3.29,2,9.11,9.11,0,0,0-2.88,7,10.44,10.44,0,0,0,2.62,7.47c1.93,2,4.63,3,8.14,3Zm30.22,3.37a30,30,0,0,0,.13,3.67h-8.16V37.36h8v2.52c1.85-2.11,3.8-3.18,5.84-3.18a12.64,12.64,0,0,1,4.83.76l-.59,8.81-.13.09c-.76-1.35-2.35-2-4.75-2a5.11,5.11,0,0,0-2.8.94,8,8,0,0,0-2.4,2.47Zm12.18-13.26a19.52,19.52,0,0,1,1.23-6.89A16.78,16.78,0,0,1,305.36,36.7q8,0,12.64,5,4.49,4.77,4.49,12.4a17.94,17.94,0,0,1-4.62,12.64q-4.87,5.31-12.93,5.31-8.32,0-13-5.21-4.32-4.73-4.32-12.19Zm7.95-.2a11.85,11.85,0,0,0,.69,4,9.32,9.32,0,0,0,2,3.3,9.19,9.19,0,0,0,7.13,3,7.87,7.87,0,0,0,6.46-2.91,11.24,11.24,0,0,0,2.29-7.33,11.15,11.15,0,0,0-2.36-7.41,8.54,8.54,0,0,0-6.91-3,8.37,8.37,0,0,0-7,3.21,11.34,11.34,0,0,0-2.3,7.14Zm42.24,16.44v9.63a34.44,34.44,0,0,0,.13,3.66h-8.15V37.36h8v2.13a13.3,13.3,0,0,1,7.6-2.79,19.12,19.12,0,0,1,6.45,1,13.4,13.4,0,0,1,4.94,3.14q4.7,4.62,4.69,13.17a19.36,19.36,0,0,1-2.66,10.12,16.82,16.82,0,0,1-6.25,6,15.24,15.24,0,0,1-7.66,2,17.93,17.93,0,0,1-7.09-1.24Zm0-8.25a9.66,9.66,0,0,0,6.45,2.09q6.5,0,8.39-6.25a15.68,15.68,0,0,0,.65-4.57,13.12,13.12,0,0,0-.46-3.89,8.7,8.7,0,0,0-1.19-2.52A7.93,7.93,0,0,0,350,45.73a9.06,9.06,0,0,0-1.86-1.13,8.18,8.18,0,0,0-3.44-.76,9.3,9.3,0,0,0-3.67.82,9.73,9.73,0,0,0-3.21,2.2Z" style="fill:#fff"/><path d="M176.11,18.09H176l-6.54,6.56a.1.1,0,0,0,0,.14L176,31.34a.12.12,0,0,0,.14,0l6.54-6.57a.1.1,0,0,0,0-.14l-6.56-6.53a0,0,0,0,1,0,0Z" style="fill:#fff"/></svg>