<svg data-name="Capa 1" xmlns="http://www.w3.org/2000/svg" xmlns:xlink="http://www.w3.org/1999/xlink" viewBox="0 0 693.13 746.19"><defs><linearGradient id="a" x1="369.05" y1="898.42" x2="-84" y2="121.35" gradientUnits="userSpaceOnUse"><stop offset="0" stop-color="#3c00ff"/><stop offset=".4" stop-color="#7200ff"/><stop offset=".8" stop-color="#a200ff"/><stop offset=".99" stop-color="#b400ff"/></linearGradient><linearGradient id="b" x1="686.57" y1="713.31" x2="233.52" y2="-63.77" xlink:href="#a"/><linearGradient id="c" x1="601.1" y1="763.13" x2="148.06" y2="-13.94" xlink:href="#a"/><linearGradient id="d" x1="611.07" y1="757.32" x2="158.02" y2="-19.75" xlink:href="#a"/></defs><path d="M67.81 323.53l-11.3-16.11c-8.67-12.4-25.59-17.62-38.7-10a28.5 28.5 0 0 0-9.16 41.06l11.67 16.65C28 366 42.11 371.45 54.51 366.58a28.55 28.55 0 0 0 13.3-43.05z" fill="url(#a)"/><path d="M289.44 87.07a28.55 28.55 0 0 0 45 2.26c8.83-10 8.56-25.14.92-36.06L324.73 37.2c-8.68-12.4-25.59-17.61-38.7-10a28.51 28.51 0 0 0-9.17 41.06z" fill="url(#b)"/><path d="M579.25 626.51c-87.9 76.89-223.53 54.22-281.67-47-43.43-75.61-27.3-172.27 38.35-229.65C417.6 278.49 540.39 293 604 376.59a46.72 46.72 0 0 0 37.82 18.74c34.45-.55 56.67-37.51 40.14-67.74a282.79 282.79 0 0 0-17.6-28.07c-63.23-88.77-137.12-194.27-199.57-283.63a28.25 28.25 0 0 0-39.54-6.81l-.21.15a28.5 28.5 0 0 0-6.82 39.54l57.56 83.69c16 23.13-1.11 54.67-29.25 53.77h-.93c-10.34-.31-22.28-10.17-28.21-18.64l-32.66-45.1a28.51 28.51 0 0 0-42-5.1c-11.26 9.74-12.23 27-3.7 39.2l1.82 2.94c12.06 17.24-.5 40.57-21.49 47.24-14.14 4.49-29.58-1.5-38.14-13.62l-95.94-136.6a28.46 28.46 0 0 0-41.59-5.31C132 61 131.13 78.68 139.87 91.07l95.28 135.66a33.6 33.6 0 0 1-3 42.37l-.81.87a33.37 33.37 0 0 1-51.62-3.61l-60.9-85.92a28.5 28.5 0 1 0-46.6 32.84l87 123a54.19 54.19 0 0 1 7.42 46.66l-.19.65c-6.71 22.92-38.78 25.38-52.38 5.75a28.51 28.51 0 0 0-39.68-7.09c-12.58 8.56-16.09 26.76-7.1 39.68L170.46 567c5.95 8.38 12.16 17.9 20.13 30.45 3.41 5.37 13.35 20.14 17.11 25.41C297.54 749 472.47 781 598.59 691.19a278.63 278.63 0 0 0 86.82-100.55c11.38-22.28-4.73-48.69-29.75-48.29A32.91 32.91 0 0 0 626 562.22a180.53 180.53 0 0 1-46.75 64.29z" fill="url(#c)"/><path d="M497 573.46a35.56 35.56 0 0 1-12.27.18L403.82 561A35.85 35.85 0 0 1 374 520.15l12.61-80.92a35.8 35.8 0 0 1 40.92-29.86L508.37 422a35.86 35.86 0 0 1 29.87 40.89l-12.62 80.91A35.87 35.87 0 0 1 497 573.46zm-75.15-129.57a1 1 0 0 0-.76.71l-12.61 80.92a.85.85 0 0 0 .72 1l80.91 12.61a1 1 0 0 0 1-.71l12.62-80.92a.89.89 0 0 0-.73-1l-80.9-12.6z" fill="url(#d)"/></svg>