<svg xmlns="http://www.w3.org/2000/svg" viewBox="0 0 82.932 64.202"><defs/><path class="a" d="M44.008 6.881c0 3.8 8.713 6.881 19.463 6.881s19.461-3.081 19.461-6.881S74.217 0 63.471 0 44.008 3.08 44.008 6.881"/><path class="a" d="M44.008 11.75c0 3.8 8.713 6.881 19.463 6.881s19.461-3.081 19.461-6.881v7.2c0 3.8-8.715 6.881-19.461 6.881S44.008 22.75 44.008 18.95z"/><path class="a" d="M44.008 24.48c0 3.8 8.713 6.881 19.463 6.881s19.461-3.081 19.461-6.881v7.2c0 3.8-8.715 6.881-19.461 6.881S44.008 35.48 44.008 31.68zM0 32.526c0 3.8 8.714 6.883 19.464 6.883s19.46-3.081 19.46-6.883-8.715-6.88-19.46-6.88S0 28.726 0 32.526"/><path class="a" d="M0 37.396c0 3.8 8.714 6.881 19.464 6.881s19.46-3.081 19.46-6.881v7.2c0 3.8-8.715 6.881-19.46 6.881S0 48.396 0 44.596z"/><path class="a" d="M0 50.126c0 3.8 8.714 6.881 19.464 6.881s19.46-3.081 19.46-6.881v7.2c0 3.8-8.715 6.881-19.46 6.881S0 61.126 0 57.326zM44.008 37.025c0 3.8 8.713 6.883 19.463 6.883s19.461-3.083 19.461-6.883v7.2c0 3.8-8.715 6.882-19.461 6.882s-19.463-3.082-19.463-6.882z"/><path class="a" d="M44.008 49.942c0 3.8 8.713 6.881 19.463 6.881s19.461-3.081 19.461-6.881v7.2c0 3.8-8.715 6.881-19.461 6.881s-19.463-3.081-19.463-6.881z"/></svg>