<svg id="Capa_1" data-name="Capa 1" xmlns="http://www.w3.org/2000/svg" xmlns:xlink="http://www.w3.org/1999/xlink" viewBox="0 0 1163.25 264.02"><defs><style>.cls-5{fill:#1e1b42}</style><linearGradient id="Degradado_sin_nombre_95" x1="172.39" y1="350.94" x2="-42.1" y2="35.96" gradientUnits="userSpaceOnUse"><stop offset="0" stop-color="#3c00ff"/><stop offset=".4" stop-color="#7200ff"/><stop offset=".8" stop-color="#a200ff"/><stop offset=".99" stop-color="#b400ff"/></linearGradient><linearGradient id="Degradado_sin_nombre_95-2" x1="281.04" y1="276.96" x2="66.55" y2="-38.03" xlink:href="#Degradado_sin_nombre_95"/><linearGradient id="Degradado_sin_nombre_95-3" x1="246.3" y1="300.61" x2="31.81" y2="-14.37" xlink:href="#Degradado_sin_nombre_95"/><linearGradient id="Degradado_sin_nombre_95-4" x1="246.57" y1="300.43" x2="32.08" y2="-14.56" xlink:href="#Degradado_sin_nombre_95"/><linearGradient id="Degradado_sin_nombre_95-5" x1="521.79" y1="28.22" x2="578.79" y2="94.21" xlink:href="#Degradado_sin_nombre_95"/></defs><path d="M23.72 114.7l-4-5.67c-3.06-4.36-9-6.19-13.62-3.53A10 10 0 0 0 2.9 120l4.1 5.81c2.69 3.84 7.67 5.76 12 4a10.05 10.05 0 0 0 4.72-15.11z" fill="url(#Degradado_sin_nombre_95)"/><path d="M101.71 31.5a10.05 10.05 0 0 0 15.84.79c3.1-3.51 3-8.85.32-12.69l-3.74-5.6c-3.06-4.37-9-6.2-13.62-3.54a10 10 0 0 0-3.23 14.45z" fill="url(#Degradado_sin_nombre_95-2)"/><path d="M203.69 221.32a64.82 64.82 0 1 1 8.72-87.94 16.44 16.44 0 0 0 13.31 6.62c12.12-.19 19.94-13.2 14.12-23.84a97.79 97.79 0 0 0-6.19-9.87C211.39 75 185.39 37.89 163.41 6.45a9.94 9.94 0 0 0-13.91-2.4h-.07A10 10 0 0 0 147 18l20.25 29.45A12.05 12.05 0 0 1 157 66.39h-.33c-3.64-.11-7.84-3.58-9.92-6.56L135.24 44a10 10 0 0 0-14.78-1.8c-4 3.43-4.31 9.5-1.3 13.8l.63 1c4.25 6.07-.17 14.28-7.56 16.62a12.13 12.13 0 0 1-13.42-4.79L65.06 20.75a10 10 0 0 0-14.64-1.86c-4.1 3.41-4.42 9.65-1.34 14l33.53 47.75a11.83 11.83 0 0 1-1 14.91l-.29.31a11.74 11.74 0 0 1-18.16-1.27L41.69 64.35a10 10 0 0 0-16.4 11.56l30.62 43.26a19.08 19.08 0 0 1 2.6 16.43l-.06.22c-2.36 8.07-13.65 8.94-18.44 2a10 10 0 1 0-16.45 11.47l36.28 51.07c2.1 3 4.28 6.3 7.09 10.72 1.2 1.89 4.7 7.09 6 8.94 31.61 44.38 93.17 55.64 137.55 24a98.08 98.08 0 0 0 30.55-35.38 11.64 11.64 0 0 0-10.47-17 11.59 11.59 0 0 0-10.44 7 63.55 63.55 0 0 1-16.43 22.68z" fill="url(#Degradado_sin_nombre_95-3)"/><path d="M174.74 202.65a12.46 12.46 0 0 1-4.31.07L142 198.28a12.62 12.62 0 0 1-10.51-14.39l4.44-28.47a12.59 12.59 0 0 1 14.39-10.51l28.47 4.43a12.63 12.63 0 0 1 10.51 14.39l-4.44 28.47a12.57 12.57 0 0 1-10.08 10.44zm-26.43-45.59a.33.33 0 0 0-.27.25l-4.44 28.47a.29.29 0 0 0 .25.35l28.47 4.44a.34.34 0 0 0 .35-.25l4.44-28.48a.31.31 0 0 0-.25-.35l-28.47-4.43z" fill="url(#Degradado_sin_nombre_95-4)"/><path class="cls-5" d="M398.31 212.13q-12 11.94-37.46 12-24.77 0-40.45-15.05-15.91-15.25-15.91-40.56 0-25.72 15.69-42.26 16.65-17.4 44.51-17.4 19.74 0 33.09 8.65l-4.27 27.32-.75-.11q-5.13-6.19-10.78-8.11a55.3 55.3 0 0 0-18.36-3.2q-9.18 0-14.41 2.34a26.51 26.51 0 0 0-9 6.52q-7.47 8.53-7.48 22.63 0 25 17.3 32.65a31.71 31.71 0 0 0 12.64 2.57 50.58 50.58 0 0 0 11.64-1.18 41.49 41.49 0 0 0 9-3.2q8.64-4.27 11.74-9.93l.74.32zM412.51 167.3a63.7 63.7 0 0 1 4-22.47A55.6 55.6 0 0 1 428 126.1q16.33-17.3 42.37-17.29t41.2 16.33q14.62 15.58 14.62 40.45t-15 41.2q-15.97 17.29-42.19 17.29-27.12 0-42.49-17-13.99-15.45-14-39.78zm25.93-.64a38.66 38.66 0 0 0 2.24 13 30.79 30.79 0 0 0 6.4 10.78q8.87 9.72 23.27 9.71 13.35 0 21-9.5 7.47-9.18 7.47-23.9 0-14.94-7.68-24.13-8.24-9.81-22.52-9.81-14.52 0-22.74 10.45-7.44 9.63-7.44 23.4zM573 210.52a102.45 102.45 0 0 0 .43 12h-27.08V110.94H573zM631.2 208.82a78.41 78.41 0 0 0 .85 13.66h-26.79V110.94h25.94v9.5q14.09-11.62 30.1-11.63 17.51 0 28 11.9T699.72 152v42.48q0 18 .54 21.67t1.44 4.7c.6.71 1.12 1.35 1.55 1.92l-.22.43q-8.64-.75-12.6-.75H683q-3.42 0-9.18.32v-58.14q0-31.27-19-31.27-14.1 0-23.59 14.51zM807.42 216.5q-13.56 7.58-27.11 7.58t-23.69-4.27a51.12 51.12 0 0 1-17.3-11.74q-14.72-15.37-14.72-39.92 0-25.4 17.07-42.26 17.19-17.08 44-17.08a61.54 61.54 0 0 1 16.11 2.13V63.45h26.15v114.1q0 14.19 1.33 18.57a19.54 19.54 0 0 0 3 6.4 21.44 21.44 0 0 0 4.22 3.84l-20.07 17.72a26.79 26.79 0 0 1-8.99-7.58zm-22.09-17a39 39 0 0 0 16.43-3.41V137a41.85 41.85 0 0 0-16.22-3.1 42.83 42.83 0 0 0-15 2.35 32.4 32.4 0 0 0-10.72 6.51q-9.39 8.75-9.4 22.73 0 15.27 8.55 24.34 9.17 9.69 26.36 9.7zM883.84 210.52a100.14 100.14 0 0 0 .43 12h-26.58V110.94h26.15v8.22q9.06-10.35 19-10.35t15.74 2.45L916.71 140l-.43.31c-2.48-4.4-7.65-6.61-15.47-6.61a16.62 16.62 0 0 0-9.13 3 26.49 26.49 0 0 0-7.84 8.06zM923.55 167.3a63.7 63.7 0 0 1 4-22.47A55.6 55.6 0 0 1 939 126.1q16.34-17.3 42.37-17.29t41.21 16.33q14.61 15.58 14.61 40.45t-15 41.2q-15.9 17.29-42.16 17.29-27.12 0-42.48-17-14-15.45-14-39.78zm25.93-.64a38.66 38.66 0 0 0 2.24 13 30.67 30.67 0 0 0 6.41 10.78q8.85 9.72 23.26 9.71 13.35 0 21-9.5 7.47-9.18 7.47-23.9 0-14.94-7.68-24.13-8.22-9.81-22.52-9.81-14.52 0-22.74 10.45-7.44 9.63-7.44 23.4zM1087.17 220.24v31.38a103.07 103.07 0 0 0 .42 11.95H1061V110.94h26.16v6.94q12.9-9.07 24.76-9.07a61.71 61.71 0 0 1 21 3.31 43.31 43.31 0 0 1 16.12 10.24q15.26 15.06 15.27 42.91 0 18.47-8.65 33a54.6 54.6 0 0 1-20.39 19.64 49.94 49.94 0 0 1-25 6.51q-13.39-.02-23.1-4.18zm0-26.9q8.1 6.82 21 6.83 21.13 0 27.32-20.38a50.19 50.19 0 0 0 2.14-14.89 43.84 43.84 0 0 0-1.49-12.7 30.41 30.41 0 0 0-3.9-8.22 25.77 25.77 0 0 0-5.39-5.77 30.72 30.72 0 0 0-6.08-3.68 27 27 0 0 0-11.21-2.45 30.13 30.13 0 0 0-12 2.67 31.35 31.35 0 0 0-10.45 7.15z"/><path d="M556.05 46.14a.35.35 0 0 0-.38 0l-21.3 21.39a.31.31 0 0 0 0 .45l21.39 21.3a.36.36 0 0 0 .45 0l21.3-21.4a.31.31 0 0 0 0-.45l-21.39-21.3a.13.13 0 0 0-.07.01z" fill="url(#Degradado_sin_nombre_95-5)"/></svg>