<svg xmlns="http://www.w3.org/2000/svg" viewBox="0 0 24 24">
  <path fill="currentColor" d="M12 20a2 2 0 0 1-.9-.21l-5.47-2.74a2 2 0 0 1-1.11-1.81V8.75A2 2 0 0 1 5.64 7l5.46-2.77a2 2 0 0 1 1.8 0L18.36 7a2 2 0 0 1 1.12 1.8v6.5a2 2 0 0 1-1.12 1.8l-5.46 2.67a2 2 0 0 1-.9.23zM5.39 7.37a.64.64 0 0 0-.29 1.22l.71.41v6.29a.73.73 0 0 0 .4.65l5.15 2.57v.87a.65.65 0 0 0 1.29 0v-.87l-.33.16a.72.72 0 0 1-.64 0l-.32-.16v-6.79L5.81 9v-.2a.74.74 0 0 1 .4-.65l.4-.2-.94-.47a.67.67 0 0 0-.28-.11zm7.26 4.35v6.74l5.13-2.57a.71.71 0 0 0 .4-.64V9l-5.53 2.77v-.4a.65.65 0 0 0-1.3 0v.4l.36.17a.66.66 0 0 0 .58 0zM12 5.31a.71.71 0 0 0-.32.07L6.62 7.91 12 10.59l5.38-2.68-5.06-2.53a.6.6 0 0 0-.32-.07zm6.61 2.06a.59.59 0 0 0-.29.07l-.94.47.4.2a.71.71 0 0 1 .4.64V9l.72-.36a.64.64 0 0 0 .29-.86.66.66 0 0 0-.58-.36z"/>
</svg>