<svg xmlns="http://www.w3.org/2000/svg" viewBox="0 0 39 68"><path d="M20.994 29.844C12.3 27.616 9.5 25.311 9.5 21.722c0-4.118 3.869-6.989 10.344-6.989 6.819 0 9.348 3.211 9.578 7.933h8.467c-.268-6.5-4.291-12.467-12.3-14.393V0H14.1v8.16C6.666 9.747.69 14.507.69 21.8c0 8.727 7.317 13.071 18.006 15.6 9.578 2.267 11.493 5.591 11.493 9.1 0 2.607-1.877 6.762-10.344 6.762-7.892 0-11-3.476-11.417-7.933H0C.46 53.607 6.743 58.253 14.1 59.8V68h11.491v-8.122C33.062 58.48 39 54.211 39 46.467c0-10.729-9.309-14.394-18.006-16.623z" fill="#1e0042"/></svg>