<svg xmlns="http://www.w3.org/2000/svg" viewBox="0 0 24 24">
  <path fill="none" d="M13.91 9.15h2.95l-2.95-2.94v2.94z"/>
  <path fill="currentColor" d="M18.41 10.44h-.64v-.38l-.92-.91h1.56a.71.71 0 0 1 .42.14l-5.08-5.07a.67.67 0 0 1 .16.43v1.56L13 5.29h-.38v4.5a.65.65 0 0 0 .65.65h4.5v7.44a.83.83 0 0 1-.83.83H8.12a.83.83 0 0 1-.83-.83V6.12a.83.83 0 0 1 .83-.83h4.5v-.64a.64.64 0 0 1 .64-.65H8.12A2.12 2.12 0 0 0 6 6.12v11.76A2.12 2.12 0 0 0 8.12 20h8.82a2.12 2.12 0 0 0 2.12-2.12V9.79a.65.65 0 0 1-.65.65zm-4.5-1.29V6.21l2.94 2.94z"/>
</svg>