<svg data-name="Layer 1" xmlns="http://www.w3.org/2000/svg" viewBox="0 0 94.84 43.82"><path d="M24.73 43.82a3.15 3.15 0 0 1-.87-.12 3.42 3.42 0 0 1-2.45-4.17l1.75-6.71H15.3l-2.21 8.45a3.5 3.5 0 0 1-3.35 2.55 3.68 3.68 0 0 1-.82-.1 3.43 3.43 0 0 1-2.45-4.18l1.76-6.72H3.42a3.43 3.43 0 0 1 0-6.85H10l2.12-8.11H7.34a3.43 3.43 0 1 1 0-6.85h6.6l2.2-8.44A3.43 3.43 0 0 1 19.46 0a3.39 3.39 0 0 1 2.94 1.7 3.42 3.42 0 0 1 .36 2.6L21 11h7.88l2.21-8.44a3.42 3.42 0 0 1 6.62 1.74L36 11h4.81a3.43 3.43 0 1 1 0 6.85h-6.64L32 26h4.81a3.43 3.43 0 1 1 0 6.85h-6.6L28 41.26a3.42 3.42 0 0 1-3.27 2.56zm-5.52-26L17.1 26H25l2.12-8.11zM71.33 7.34c16.31-20.59 43.12 5.57.83 36.2a1.44 1.44 0 0 1-1.7 0c-42.3-30.63-15.48-56.8.83-36.2z"/></svg>