<svg xmlns="http://www.w3.org/2000/svg" width="49" height="56">
  <g fill="currentColor" stroke="currentColor" fill-rule="nonzero">
    <path d="M48.539 21.974v.183c0 11.806-9.57 21.377-21.376 21.377-11.806 0-21.377-9.57-21.377-21.377v-.183c0-11.806 9.57-21.376 21.377-21.376 11.805 0 21.376 9.57 21.376 21.376z" opacity=".08"/>
    <path stroke="#CA34FF" stroke-width=".5" d="M14.765 12.032a1.141 1.141 0 0 1-1.117-1.158l.043-4.002A1.14 1.14 0 0 1 14.83 5.75c.626.012 1.125.53 1.117 1.158l-.065 4.002a1.141 1.141 0 0 1-1.117 1.122zM25.07 41.312a1.141 1.141 0 0 1-1.118-1.158l.072-4.566a1.14 1.14 0 0 1 1.139-1.122c.626.012 1.125.53 1.117 1.158l-.072 4.566a1.14 1.14 0 0 1-1.139 1.122z"/>
    <path stroke="#CA34FF" stroke-width=".5" d="M19.816 42.658h-1.045C8.421 42.472.174 33.905.34 23.51.504 15.145 6.113 7.88 14.138 5.634c.41-.195.897-.127 1.238.173a1.147 1.147 0 0 1-.64 1.998c-7.062 1.978-11.991 8.38-12.12 15.74A16.604 16.604 0 0 0 7.252 35.34a16.461 16.461 0 0 0 11.584 5.046h1.117c.431-.063.86.127 1.105.488.245.362.263.833.046 1.212-.216.38-.63.602-1.064.572h-.224zM25.062 41.515a1.14 1.14 0 0 1-1.116-1.042 1.143 1.143 0 0 1 .914-1.223l.476-.087c7.156-2.936 11.324-10.469 10.027-18.122-1.297-7.654-7.71-13.378-15.432-13.771h-.547a1.141 1.141 0 0 1-1.139-1.144c0-.631.51-1.143 1.139-1.143h.627c8.812.444 16.128 6.99 17.58 15.732 1.453 8.74-3.35 17.318-11.542 20.611a1.15 1.15 0 0 1-.223.066l-.584.108-.18.015z"/>
    <path stroke="#CA34FF" stroke-width=".5" d="M18.937 32.237a3.674 3.674 0 0 1-2.623-1.093l-4.547-4.566a3.738 3.738 0 0 1 0-5.269l4.547-4.566a3.7 3.7 0 0 1 5.246 0l4.547 4.566a3.738 3.738 0 0 1 0 5.269l-4.54 4.573a3.674 3.674 0 0 1-2.63 1.086zm0-14.3c-.38 0-.746.15-1.016.42l-4.547 4.566a1.452 1.452 0 0 0 0 2.041l4.547 4.566c.562.562 1.47.562 2.032 0l4.547-4.566a1.452 1.452 0 0 0 0-2.04l-4.547-4.567a1.438 1.438 0 0 0-1.016-.413v-.007zM30.596 54.801c-.175.001-.347-.038-.504-.115L19.016 49.17l-11.09 5.515a1.134 1.134 0 0 1-1.109-.057 1.145 1.145 0 0 1-.533-.978l.115-16.059a1.14 1.14 0 0 1 1.138-1.136 1.141 1.141 0 0 1 1.11 1.136l-.086 14.199 9.922-4.914c.318-.158.691-.158 1.009 0l9.922 4.914-.122-13.62a1.146 1.146 0 0 1 .328-.81c.212-.216.501-.339.803-.34.623 0 1.13.503 1.139 1.129l.144 15.5c.002.305-.117.598-.331.814a1.136 1.136 0 0 1-.808.337h.03z"/>
  </g>
</svg>
