<svg xmlns="http://www.w3.org/2000/svg" width="38.16" height="50.572">
  <g fill="currentColor" stroke="currentColor" stroke-miterlimit="10" stroke-width=".5">
    <path d="M14.729 7.333a1.146 1.146 0 0 1-1.121-1.164l.043-4.021a1.146 1.146 0 0 1 1.143-1.127 1.146 1.146 0 0 1 1.121 1.163l-.065 4.022a1.146 1.146 0 0 1-1.121 1.127zM25.069 36.753a1.146 1.146 0 0 1-1.121-1.164l.072-4.588a1.146 1.146 0 0 1 1.143-1.127 1.146 1.146 0 0 1 1.121 1.163l-.073 4.589a1.146 1.146 0 0 1-1.142 1.127z"/>
    <path d="M19.798 38.106H18.75A18.953 18.953 0 0 1 14.1.905a1.137 1.137 0 0 1 1.243.174 1.15 1.15 0 0 1-.643 2.008 16.723 16.723 0 0 0-7.51 27.666 16.508 16.508 0 0 0 11.624 5.07h1.121a1.14 1.14 0 0 1 1.109.491 1.154 1.154 0 0 1 .046 1.218 1.141 1.141 0 0 1-1.068.575zM25.061 36.957a1.15 1.15 0 0 1-.2-2.276l.477-.087a16.668 16.668 0 0 0 10.06-18.209A16.591 16.591 0 0 0 19.913 2.551h-.55a1.15 1.15 0 0 1 0-2.3h.629a18.881 18.881 0 0 1 17.642 15.807 18.967 18.967 0 0 1-11.582 20.71 1.152 1.152 0 0 1-.224.065l-.586.109z"/>
    <path d="M18.94 27.635h-.034a3.709 3.709 0 0 1-2.623-1.1l-4.563-4.587a3.765 3.765 0 0 1 0-5.294l4.563-4.583a3.71 3.71 0 0 1 5.264 0l4.563 4.588a3.764 3.764 0 0 1 0 5.294l-4.555 4.6a3.658 3.658 0 0 1-2.615 1.082zm-.027-14.364a1.433 1.433 0 0 0-1.017.421l-4.563 4.584a1.463 1.463 0 0 0 0 2.05l4.563 4.589a1.441 1.441 0 0 0 2.039 0l4.563-4.589a1.464 1.464 0 0 0 0-2.05l-4.565-4.588a1.431 1.431 0 0 0-1.008-.417h-.01zM30.618 50.307a1.137 1.137 0 0 1-.506-.116L18.995 44.65 7.867 50.191a1.137 1.137 0 0 1-1.114-.057 1.15 1.15 0 0 1-.535-.983l.116-16.135a1.146 1.146 0 0 1 1.142-1.142 1.146 1.146 0 0 1 1.114 1.142l-.087 14.266 9.957-4.937a1.137 1.137 0 0 1 1.012 0l9.957 4.937-.123-13.685a1.152 1.152 0 0 1 .33-.815 1.139 1.139 0 0 1 .806-.342 1.146 1.146 0 0 1 1.142 1.134l.145 15.575a1.152 1.152 0 0 1-.332.817 1.139 1.139 0 0 1-.81.339z"/>
  </g>
</svg>
