<svg xmlns="http://www.w3.org/2000/svg" viewBox="0 0 71.838 73.474"><defs><style>.a{fill:#1e0042}</style></defs><path class="a" d="M50.16 6.836l2.997-4.798a30.866 30.866 0 0 1 13.755 19.3 30.866 30.866 0 0 1-3.905 23.378l-4.76-2.974a25.365 25.365 0 0 0 3.18-19.137A25.156 25.156 0 0 0 50.16 6.835z"/><path class="a" d="M41.51 13.982l2.662-3.78a22.618 22.618 0 0 1 11.413 14.7 22.618 22.618 0 0 1-3.814 18.213l-4.022-2.213a18.583 18.583 0 0 0 3.108-14.91 18.44 18.44 0 0 0-9.348-12.01zM53.482 73.475H0v-6.682a7.934 7.934 0 0 1 2.923-5.84 23.167 23.167 0 0 1 7.1-4.179 48.477 48.477 0 0 1 8.777-2.516 44.15 44.15 0 0 1 7.943-.839 44.15 44.15 0 0 1 7.943.839 48.477 48.477 0 0 1 8.774 2.512 23.167 23.167 0 0 1 7.1 4.179 7.934 7.934 0 0 1 2.923 5.84v6.684zM26.741 46.734a13.372 13.372 0 0 1-9.456-22.826A13.374 13.374 0 0 1 36.2 42.819a13.284 13.284 0 0 1-9.459 3.915z"/></svg>