<svg xmlns="http://www.w3.org/2000/svg" viewBox="0 0 43.063 35.914"><path d="M3170.938,5480.965l-19.988-19.988a1.513,1.513,0,1,1,2.124-2.156h0L3172,5477.746l18.925-18.925a1.525,1.525,0,0,1,2.157,2.156h0l-19.988,19.988a1.51,1.51,0,0,1-2.156,0Zm.007-12.864h0l-19.988-19.988a1.515,1.515,0,1,1,2.128-2.156l18.925,18.926,18.926-18.926a1.525,1.525,0,0,1,1.083-.453,1.52,1.52,0,0,1,1.527,1.527,1.528,1.528,0,0,1-.453,1.081L3173.1,5468.1a1.508,1.508,0,0,1-2.157,0Z" transform="translate(-3150.48 -5445.503)"/></svg>