<svg data-name="Layer 1" xmlns="http://www.w3.org/2000/svg" viewBox="0 0 59.57 64.87"><path d="M29.78 64.87l-8.43-14.49h-7.81A13.5 13.5 0 0 1 4 46.45 13.27 13.27 0 0 1 0 37V13.43a13.3 13.3 0 0 1 4-9.5A13.54 13.54 0 0 1 13.54 0H46a13.51 13.51 0 0 1 9.6 3.93 13.3 13.3 0 0 1 4 9.5V37a13.29 13.29 0 0 1-4 9.5 13.52 13.52 0 0 1-9.6 3.89h-7.79l-8.43 14.48zM16.05 21.7a3.76 3.76 0 0 0-3.78 3.74V36.8a3.78 3.78 0 0 0 7.55 0V25.45a3.76 3.76 0 0 0-3.77-3.75zm17.6-12.42a3.35 3.35 0 0 0-3.25 2.54 30.81 30.81 0 0 0-.92 3.07 34.86 34.86 0 0 1-3.7 6.92 5.75 5.75 0 0 0-4.62 5.61v7.4a5.74 5.74 0 0 0 5.76 5.72h14.61a5.74 5.74 0 0 0 5.77-5.72v-7.4a5.74 5.74 0 0 0-5.77-5.72h-6.27A16.34 16.34 0 0 0 37 12.23a4 4 0 0 0-.09-.48 3.34 3.34 0 0 0-3.23-2.47z"/></svg>