<svg xmlns="http://www.w3.org/2000/svg" viewBox="0 0 24 24">
  <path fill="currentColor" d="M7.45 19.25a.64.64 0 0 1-.38-.12.65.65 0 0 1-.26-.63l.81-4.72-3.42-3.34a.64.64 0 0 1 0-.91.66.66 0 0 1 .37-.19l4.73-.69 2.12-4.29a.63.63 0 0 1 .86-.29.58.58 0 0 1 .29.29l2.12 4.29 4.74.69a.65.65 0 0 1 .54.74.63.63 0 0 1-.19.36l-3.42 3.34.81 4.71a.66.66 0 0 1-.26.64.63.63 0 0 1-.68 0L12 17l-4.25 2.18a.78.78 0 0 1-.3.07zM12 15.57a.61.61 0 0 1 .3.08l3.38 1.78-.68-3.77a.64.64 0 0 1 .18-.57l2.74-2.66-3.78-.55a.63.63 0 0 1-.48-.35L12 6.1l-1.7 3.43a.66.66 0 0 1-.49.35L6 10.43l2.73 2.66a.62.62 0 0 1 .19.57l-.64 3.77 3.37-1.78a.67.67 0 0 1 .35-.08z"/>
</svg>