<svg xmlns="http://www.w3.org/2000/svg" width="51" height="51">
  <path fill="rgba(0,0,0,0)" d="M0 0h51v51H0z"/>
  <rect width="43.226" height="43.226" fill="currentColor" opacity=".08" rx="21.613" transform="rotate(90 25.233 25.504)"/>
  <path fill="currentColor" d="M28.283 50.396H4.371a3.883 3.883 0 0 1-3.832-3.767V19.425a1.29 1.29 0 0 1 2.579 0v27.2a1.282 1.282 0 0 0 1.253 1.188h23.912a1.362 1.362 0 0 0 1.29-1.29 1.29 1.29 0 1 1 2.579 0 3.927 3.927 0 0 1-3.869 3.873z"/>
  <path fill="currentColor" d="M32.786 45.9H9.574a3.883 3.883 0 0 1-3.869-3.788V14.82a3.883 3.883 0 0 1 3.869-3.789h13.551a1.29 1.29 0 1 1 0 2.579H9.574a1.282 1.282 0 0 0-1.29 1.2v27.287a1.282 1.282 0 0 0 1.29 1.2h23.212a1.282 1.282 0 0 0 1.29-1.2v-27.19a1.362 1.362 0 0 0-1.29-1.29h-3.854a1.29 1.29 0 0 1 0-2.579h3.854a3.927 3.927 0 0 1 3.869 3.869v27.19a3.883 3.883 0 0 1-3.869 3.8z"/>
  <path fill="currentColor" d="M28.283 30.396a1.29 1.29 0 0 1-1.29-1.29V11.621c0-2.492-1.712-5.1-4.575-5.1a5.487 5.487 0 0 0-5.428 5.1 1.29 1.29 0 1 1-2.579 0c0-4.007 3.8-7.65 7.978-7.65 4.51 0 7.191 3.891 7.191 7.65v17.486a1.29 1.29 0 0 1-1.3 1.29z"/>
  <path fill="currentColor" d="M24.414 35.555a4.94 4.94 0 0 1-5.166-5.166V18.135a1.29 1.29 0 0 1 2.579 0v12.261a2.4 2.4 0 0 0 2.579 2.579 2.4 2.4 0 0 0 2.579-2.579 1.29 1.29 0 0 1 2.579 0 4.94 4.94 0 0 1-5.15 5.159z"/>
</svg>
