<svg xmlns="http://www.w3.org/2000/svg" width="51.285" height="46.453">
  <g>
    <rect width="44.41" height="44.162" fill="currentColor" opacity=".08" rx="22.081" transform="rotate(90 25.642 25.643)"/>
    <path fill="currentColor" d="M13.532 46.454H4.064a4.076 4.076 0 0 1-4.057-4.08V24.679a1.355 1.355 0 1 1 2.709 0v17.688a1.358 1.358 0 0 0 1.348 1.35h9.468a1.362 1.362 0 0 1 0 2.725zM43.306 12.426H23.008a1.362 1.362 0 0 1 0-2.725h20.3a1.362 1.362 0 0 1 0 2.725z"/>
    <ellipse cx="2.032" cy="2.043" fill="currentColor" rx="2.032" ry="2.043" transform="translate(40.597 15.831)"/>
    <path fill="currentColor" d="M36.54 19.23H24.363a1.362 1.362 0 0 1 0-2.725H36.54a1.362 1.362 0 0 1 0 2.725z"/>
    <ellipse cx="2.032" cy="2.043" fill="currentColor" rx="2.032" ry="2.043" transform="translate(23.008 22.635)"/>
    <path fill="currentColor" d="M43.306 26.042H31.129a1.362 1.362 0 0 1 0-2.725h12.177a1.362 1.362 0 0 1 0 2.725z"/>
    <ellipse cx="2.032" cy="2.043" fill="currentColor" rx="2.032" ry="2.043" transform="translate(40.597 29.44)"/>
    <path fill="currentColor" d="M36.54 32.846H24.363a1.362 1.362 0 0 1 0-2.725H36.54a1.362 1.362 0 0 1 0 2.725zM10.153 39.65a1.359 1.359 0 0 1-1.355-1.363v-6.8a1.355 1.355 0 1 1 2.709 0v6.8a1.366 1.366 0 0 1-.4.963 1.351 1.351 0 0 1-.958.4zM43.306 46.454H18.951a1.362 1.362 0 0 1 0-2.725h24.355a1.362 1.362 0 0 1 0 2.725zM18.951 26.042H1.355a1.362 1.362 0 0 1 0-2.725h17.6a1.362 1.362 0 0 1 0 2.725zM43.306 39.65H18.951a1.362 1.362 0 0 1 0-2.725h24.355a1.362 1.362 0 0 1 0 2.725z"/>
    <path fill="currentColor" d="M18.951 32.845a1.359 1.359 0 0 1-1.355-1.365V19.91a7.45 7.45 0 1 0-14.887-.576 1.357 1.357 0 1 1-2.706-.21 10.15 10.15 0 0 1 20.269.749V31.48a1.359 1.359 0 0 1-1.325 1.362z"/>
  </g>
</svg>
