<svg xmlns="http://www.w3.org/2000/svg" viewBox="0 0 57.841 110"><defs/><ellipse class="a" cx="10.274" cy="10.185" rx="10.274" ry="10.185" transform="translate(12.329 42.099)"/><path class="a" d="M48.708 110H6.089A6.069 6.069 0 0 1 0 103.964v-42.25a6.069 6.069 0 0 1 6.089-6.035h42.619a6.069 6.069 0 0 1 6.092 6.035v5.734H27.4c-1.672 0-2.512 0-2.93.4s-.42 1.218-.42 2.831v24.32c0 1.614 0 2.424.418 2.827s1.258.4 2.93.4H54.8v5.734a6.069 6.069 0 0 1-6.092 6.04zm9.133-15.089H27.4V70.768h30.441V94.91zm-18.266-16.6a4.527 4.527 0 1 0 4.566 4.526 4.552 4.552 0 0 0-4.565-4.524z"/><ellipse class="a" cx="10.274" cy="10.185" rx="10.274" ry="10.185" transform="translate(27.398 23.086)"/><ellipse class="a" cx="10.274" cy="10.185" rx="10.274" ry="10.185" transform="translate(8.219)"/></svg>